<svg xmlns="http://www.w3.org/2000/svg" width="16.875" height="19.25" viewBox="0 0 16.875 19.25">
  <metadata><?xpacket begin="﻿" id="W5M0MpCehiHzreSzNTczkc9d"?>
<x:xmpmeta xmlns:x="adobe:ns:meta/" x:xmptk="Adobe XMP Core 5.6-c142 79.160924, 2017/07/13-01:06:39        ">
   <rdf:RDF xmlns:rdf="http://www.w3.org/1999/02/22-rdf-syntax-ns#">
      <rdf:Description rdf:about=""/>
   </rdf:RDF>
</x:xmpmeta>
                                                                                                    
                                                                                                    
                                                                                                    
                                                                                                    
                                                                                                    
                                                                                                    
                                                                                                    
                                                                                                    
                                                                                                    
                                                                                                    
                                                                                                    
                                                                                                    
                                                                                                    
                                                                                                    
                                                                                                    
                                                                                                    
                                                                                                    
                                                                                                    
                                                                                                    
                                                                                                    
                           
<?xpacket end="w"?></metadata>
<defs>
    <style>
      .cls-1 {
        fill: #fff;
        fill-rule: evenodd;
      }
    </style>
  </defs>
  <path id="Book_of_Wisdom" data-name="Book of Wisdom" class="cls-1" d="M513.221,3781.37H499.982a2.409,2.409,0,0,0-2.407,2.41v14.44a2.409,2.409,0,0,0,2.407,2.41h13.239a1.206,1.206,0,0,0,1.2-1.21v-16.84A1.206,1.206,0,0,0,513.221,3781.37Zm-1.2,16.25a0.6,0.6,0,0,1-.6.6H501.174a1.189,1.189,0,0,1-1.192-1.19v-0.02a1.2,1.2,0,0,1,1.192-1.2h10.242a0.6,0.6,0,0,1,.6.61v1.2Zm0-4.78a0.6,0.6,0,0,1-.6.6h-8.425a0.6,0.6,0,0,1-.6-0.6v-8.46a0.6,0.6,0,0,1,.6-0.6h8.425a0.6,0.6,0,0,1,.6.6v8.46Zm-3.009-6.65H505.4a0.6,0.6,0,0,0-.6.6v1.2a0.6,0.6,0,0,0,.6.6h3.611a0.6,0.6,0,0,0,.6-0.6v-1.2A0.6,0.6,0,0,0,509.009,3786.19Z" transform="translate(-497.563 -3781.38)"/>
</svg>
