<svg xmlns="http://www.w3.org/2000/svg" width="12.281" height="10.94" viewBox="0 0 12.281 10.94">
  <metadata><?xpacket begin="﻿" id="W5M0MpCehiHzreSzNTczkc9d"?>
<x:xmpmeta xmlns:x="adobe:ns:meta/" x:xmptk="Adobe XMP Core 5.6-c142 79.160924, 2017/07/13-01:06:39        ">
   <rdf:RDF xmlns:rdf="http://www.w3.org/1999/02/22-rdf-syntax-ns#">
      <rdf:Description rdf:about=""/>
   </rdf:RDF>
</x:xmpmeta>
                                                                                                    
                                                                                                    
                                                                                                    
                                                                                                    
                                                                                                    
                                                                                                    
                                                                                                    
                                                                                                    
                                                                                                    
                                                                                                    
                                                                                                    
                                                                                                    
                                                                                                    
                                                                                                    
                                                                                                    
                                                                                                    
                                                                                                    
                                                                                                    
                                                                                                    
                                                                                                    
                           
<?xpacket end="w"?></metadata>
<defs>
    <style>
      .cls-1 {
        fill: #fff;
        fill-rule: evenodd;
      }
    </style>
  </defs>
  <path id="European_Home" data-name="European Home" class="cls-1" d="M848.145,4275.51l4.635,3.27a0.34,0.34,0,0,1,.144.28v4.23a0.339,0.339,0,0,1-.341.34h-8.876a0.34,0.34,0,0,1-.342-0.34v-4.23a0.339,0.339,0,0,1,.145-0.28l4.635-3.27m0.124-1.43H848.02a0.688,0.688,0,0,0-.394.12l-5.337,3.77a0.679,0.679,0,0,0-.289.56v5.79a0.685,0.685,0,0,0,.683.68h10.924a0.685,0.685,0,0,0,.683-0.68v-5.79a0.679,0.679,0,0,0-.289-0.56l-5.338-3.77a0.688,0.688,0,0,0-.394-0.12h0Zm-1.148,5.46h-2.049a0.339,0.339,0,0,0-.341.34V4285h2.731v-5.12A0.339,0.339,0,0,0,847.121,4279.54Zm4.1,1.36h-2.048a0.34,0.34,0,0,1-.342-0.34v-0.68a0.34,0.34,0,0,1,.342-0.34h2.048a0.34,0.34,0,0,1,.342.34v0.68A0.34,0.34,0,0,1,851.217,4280.9Z" transform="translate(-842 -4274.06)"/>
</svg>
