<svg xmlns="http://www.w3.org/2000/svg" width="18.97" height="18.97" viewBox="0 0 18.97 18.97">
  <metadata><?xpacket begin="﻿" id="W5M0MpCehiHzreSzNTczkc9d"?>
<x:xmpmeta xmlns:x="adobe:ns:meta/" x:xmptk="Adobe XMP Core 5.6-c142 79.160924, 2017/07/13-01:06:39        ">
   <rdf:RDF xmlns:rdf="http://www.w3.org/1999/02/22-rdf-syntax-ns#">
      <rdf:Description rdf:about=""/>
   </rdf:RDF>
</x:xmpmeta>
                                                                                                    
                                                                                                    
                                                                                                    
                                                                                                    
                                                                                                    
                                                                                                    
                                                                                                    
                                                                                                    
                                                                                                    
                                                                                                    
                                                                                                    
                                                                                                    
                                                                                                    
                                                                                                    
                                                                                                    
                                                                                                    
                                                                                                    
                                                                                                    
                                                                                                    
                                                                                                    
                           
<?xpacket end="w"?></metadata>
<defs>
    <style>
      .cls-1 {
        fill: #c1c1c1;
        fill-rule: evenodd;
      }
    </style>
  </defs>
  <path id="Forma_1" data-name="Forma 1" class="cls-1" d="M1042.99,1275.51a9.485,9.485,0,1,0,9.49,9.48A9.487,9.487,0,0,0,1042.99,1275.51Zm1.98,14.7c-0.49.19-.88,0.34-1.17,0.44a3.111,3.111,0,0,1-1.01.15,2.02,2.02,0,0,1-1.38-.43,1.4,1.4,0,0,1-.49-1.1,4.844,4.844,0,0,1,.03-0.53c0.03-.18.07-0.38,0.12-0.61l0.61-2.16c0.06-.2.1-0.4,0.14-0.58a2.5,2.5,0,0,0,.06-0.51,0.759,0.759,0,0,0-.18-0.58,0.945,0.945,0,0,0-.65-0.16,1.594,1.594,0,0,0-.48.07c-0.17.05-.31,0.1-0.43,0.14l0.16-.66c0.4-.16.79-0.3,1.15-0.42a3.321,3.321,0,0,1,1.04-.17,2.012,2.012,0,0,1,1.36.42,1.428,1.428,0,0,1,.47,1.11c0,0.09-.01.26-0.03,0.49a3.13,3.13,0,0,1-.12.65l-0.61,2.16a5.912,5.912,0,0,0-.13.59,3.091,3.091,0,0,0-.06.5,0.709,0.709,0,0,0,.19.58,1.031,1.031,0,0,0,.66.16,2.055,2.055,0,0,0,.51-0.08,2.466,2.466,0,0,0,.4-0.14Zm-0.11-8.74a1.411,1.411,0,0,1-1.02.4,1.451,1.451,0,0,1-1.03-.4,1.275,1.275,0,0,1,0-1.91,1.451,1.451,0,0,1,1.03-.4,1.411,1.411,0,0,1,1.02.4A1.275,1.275,0,0,1,1044.86,1281.47Z" transform="translate(-1033.5 -1275.5)"/>
</svg>
