<svg xmlns="http://www.w3.org/2000/svg" width="23.188" height="20.62" viewBox="0 0 23.188 20.62">
  <metadata><?xpacket begin="﻿" id="W5M0MpCehiHzreSzNTczkc9d"?>
<x:xmpmeta xmlns:x="adobe:ns:meta/" x:xmptk="Adobe XMP Core 5.6-c142 79.160924, 2017/07/13-01:06:39        ">
   <rdf:RDF xmlns:rdf="http://www.w3.org/1999/02/22-rdf-syntax-ns#">
      <rdf:Description rdf:about=""/>
   </rdf:RDF>
</x:xmpmeta>
                                                                                                    
                                                                                                    
                                                                                                    
                                                                                                    
                                                                                                    
                                                                                                    
                                                                                                    
                                                                                                    
                                                                                                    
                                                                                                    
                                                                                                    
                                                                                                    
                                                                                                    
                                                                                                    
                                                                                                    
                                                                                                    
                                                                                                    
                                                                                                    
                                                                                                    
                                                                                                    
                           
<?xpacket end="w"?></metadata>
<defs>
    <style>
      .cls-1 {
        fill: #fff;
        fill-rule: evenodd;
      }
    </style>
  </defs>
  <path id="Printer" class="cls-1" d="M710.869,3784.55h-7.738a1.292,1.292,0,0,1-1.29-1.29v-1.29a1.292,1.292,0,0,1,1.29-1.29h7.738a1.292,1.292,0,0,1,1.29,1.29v1.29A1.292,1.292,0,0,1,710.869,3784.55Zm1.29,14.19H701.841v-3.87h-2.579v5.16a1.291,1.291,0,0,0,1.29,1.29h12.9a1.291,1.291,0,0,0,1.29-1.29v-5.16h-2.579v3.87Zm3.868-15.48H696.683a1.291,1.291,0,0,0-1.29,1.29v10.32a1.291,1.291,0,0,0,1.29,1.29h5.158v-2.58h10.318v2.58h5.158a1.292,1.292,0,0,0,1.29-1.29v-10.32a1.292,1.292,0,0,0-1.29-1.29h-1.29Zm0,3.87v5.8a0.646,0.646,0,0,1-.644.65h-0.645v-1.29a1.291,1.291,0,0,0-1.29-1.29h-12.9a1.291,1.291,0,0,0-1.29,1.29v1.29h-0.645a0.647,0.647,0,0,1-.645-0.65v-6.44a0.647,0.647,0,0,1,.645-0.65h16.766a0.646,0.646,0,0,1,.644.65v0.64Z" transform="translate(-695.406 -3780.69)"/>
</svg>
