<svg xmlns="http://www.w3.org/2000/svg" width="12.25" height="12.25" viewBox="0 0 12.25 12.25">
  <metadata><?xpacket begin="﻿" id="W5M0MpCehiHzreSzNTczkc9d"?>
<x:xmpmeta xmlns:x="adobe:ns:meta/" x:xmptk="Adobe XMP Core 5.6-c142 79.160924, 2017/07/13-01:06:39        ">
   <rdf:RDF xmlns:rdf="http://www.w3.org/1999/02/22-rdf-syntax-ns#">
      <rdf:Description rdf:about=""/>
   </rdf:RDF>
</x:xmpmeta>
                                                                                                    
                                                                                                    
                                                                                                    
                                                                                                    
                                                                                                    
                                                                                                    
                                                                                                    
                                                                                                    
                                                                                                    
                                                                                                    
                                                                                                    
                                                                                                    
                                                                                                    
                                                                                                    
                                                                                                    
                                                                                                    
                                                                                                    
                                                                                                    
                                                                                                    
                                                                                                    
                           
<?xpacket end="w"?></metadata>
<defs>
    <style>
      .cls-1 {
        fill: #fff;
        fill-rule: evenodd;
      }
    </style>
  </defs>
  <path id="User" class="cls-1" d="M850.734,4321.84h0a3.748,3.748,0,0,0,.219-1.26,3.828,3.828,0,1,0-7.656,0,3.748,3.748,0,0,0,.219,1.26h0a4.6,4.6,0,0,0-2.516,4.1v2.29a0.765,0.765,0,0,0,.767.77h10.716a0.765,0.765,0,0,0,.767-0.77v-2.29A4.6,4.6,0,0,0,850.734,4321.84Zm-3.609-3.56a2.3,2.3,0,1,1-2.3,2.3A2.3,2.3,0,0,1,847.125,4318.28Zm4.594,9.19h-9.188v-1.53a3.073,3.073,0,0,1,1.775-2.78,3.8,3.8,0,0,0,5.638,0,3.073,3.073,0,0,1,1.775,2.78v1.53Z" transform="translate(-841 -4316.75)"/>
</svg>
